STARTFONT 2.1
COMMENT $XConsortium: luBS24.bdf,v 1.8 94/04/02 16:23:19 gildea Exp $
COMMENT  (c) Copyright Bigelow & Holmes 1986, 1985. Lucida is a registered
COMMENT  trademark of Bigelow & Holmes. See LEGAL NOTICE file for terms 
COMMENT  of the license. 
COMMENT  
COMMENT  Translation to ISO8859-2 by Cub Soft;  Petr.Kolar@vslib.cz
COMMENT  
FONT -B&H-Lucida-Bold-R-Normal-Sans-34-240-100-100-P-216-ISO8859-2
SIZE 24 100 100
FONTBOUNDINGBOX 86 40 -24 -7
STARTPROPERTIES 20
COMMENT Begin LogicalFontDescription
FONTNAME_REGISTRY ""
FOUNDRY "B&H"
FAMILY_NAME "Lucida"
WEIGHT_NAME "Bold"
SLANT "R"
SETWIDTH_NAME "Normal"
ADD_STYLE_NAME "Sans"
PIXEL_SIZE 34
POINT_SIZE 240
RESOLUTION_X 100
RESOLUTION_Y 100
SPACING "P"
AVERAGE_WIDTH 216
CHARSET_REGISTRY "ISO8859"
CHARSET_ENCODING "2"
COMMENT END LogicalFontDescription
FONT_ASCENT 31
FONT_DESCENT 8
DEFAULT_CHAR 0
COPYRIGHT "Copyright Bigelow & Holmes 1986, 1985., Copyright 1996 Cub Soft"
FACE_NAME "Lucida Sans Bold"
ENDPROPERTIES
CHARS 191
STARTCHAR space
ENCODING 32
SWIDTH 343 0
DWIDTH 12 0
BBX 1 1 0 0
BITMAP
00
ENDCHAR
STARTCHAR exclam
ENCODING 33
SWIDTH 265 0
DWIDTH 12 0
BBX 7 25 2 0
BITMAP
fe
fe
fe
fe
fe
fe
fe
fe
fc
fc
fc
7c
7c
7c
78
78
78
00
00
00
fe
fe
fe
fe
fe
ENDCHAR
STARTCHAR quotedbl
ENCODING 34
SWIDTH 530 0
DWIDTH 18 0
BBX 16 11 1 15
BITMAP
fe7f
fe7f
fc7f
fc7e
fc7e
fc7e
7c3e
7c3e
783c
783c
783c
ENDCHAR
STARTCHAR numbersign
ENCODING 35
SWIDTH 687 0
DWIDTH 23 0
BBX 21 25 1 0
BITMAP
00e1e0
00e1c0
00e1c0
00e1c0
01c3c0
01c380
01c380
3ffff8
3ffff8
3ffff0
038700
038700
070700
070e00
070e00
ffffe0
ffffe0
ffffe0
0e1c00
0e1c00
1c1c00
1c3800
1c3800
1c3800
383800
ENDCHAR
STARTCHAR dollar
ENCODING 36
SWIDTH 687 0
DWIDTH 23 0
BBX 17 33 3 -4
BITMAP
01e000
01e000
01e000
01e000
07fe00
1fff00
3fff00
7fff00
7ee100
7ce000
7ee000
7ee000
7fe000
3fe000
3fe000
1ff800
07fc00
03fe00
01ff00
01ff00
01ff80
01df80
01df80
81df80
e1df80
ffff00
ffff00
fffe00
3ff800
01e000
01e000
01e000
01e000
ENDCHAR
STARTCHAR percent
ENCODING 37
SWIDTH 898 0
DWIDTH 30 0
BBX 29 25 1 0
BITMAP
0f8007e0
3fe00f80
7ff00f80
7ff01f00
fdf83e00
f8f87c00
f8f87c00
f8f8f800
fdf9f000
7ff3e000
7ff3e000
3fe7c000
0f8f8000
001f0f80
003f3fe0
003e7ff0
007cfff8
00f8fdf8
01f8f8f8
01f0f8f8
03e0fdf8
07c0fff8
0f807ff0
0f803fe0
3f000f80
ENDCHAR
STARTCHAR ampersand
ENCODING 38
SWIDTH 792 0
DWIDTH 27 0
BBX 25 25 1 0
BITMAP
00fe0000
03ff8000
07ffc000
0fffe000
0fe7e000
0fe7e000
0fe7e000
07efc000
07ffc000
03ff0000
03fe1f80
0ffe1f80
3fff1f80
7fff1f80
7e7f9f00
fe3fdf00
fe3ffe00
fe1ffe00
fe1ffc00
ff0ff800
7f87f000
7ffff800
3ffffc00
0ffefe00
03f87f00
ENDCHAR
STARTCHAR apostrophe
ENCODING 39
SWIDTH 265 0
DWIDTH 9 0
BBX 7 12 1 14
BITMAP
fe
fe
fe
fe
fe
fe
fe
1e
3c
3c
f8
e0
ENDCHAR
STARTCHAR parenleft
ENCODING 40
SWIDTH 386 0
DWIDTH 13 0
BBX 10 32 1 -6
BITMAP
0040
01c0
03c0
07c0
0fc0
1f80
1f80
3f00
3f00
7f00
7e00
7e00
fe00
fe00
fe00
fe00
fe00
fe00
fe00
fe00
7e00
7e00
7f00
3f00
3f00
1f80
1f80
0fc0
07c0
03c0
01c0
0040
ENDCHAR
STARTCHAR parenright
ENCODING 41
SWIDTH 386 0
DWIDTH 13 0
BBX 10 32 2 -6
BITMAP
8000
e000
f000
f800
fc00
7e00
7e00
3f00
3f00
3f80
1f80
1f80
1fc0
1fc0
1fc0
1fc0
1fc0
1fc0
1fc0
1fc0
1f80
1f80
3f80
3f00
3f00
7e00
7e00
fc00
f800
f000
e000
8000
ENDCHAR
STARTCHAR asterisk
ENCODING 42
SWIDTH 464 0
DWIDTH 16 0
BBX 13 13 1 12
BITMAP
0f80
0700
4710
6730
7df0
f8f8
f8f8
0880
1dc0
3de0
7df0
18c0
0880
ENDCHAR
STARTCHAR plus
ENCODING 43
SWIDTH 687 0
DWIDTH 23 0
BBX 20 21 2 0
BITMAP
00f000
00f000
00f000
00f000
00f000
00f000
00f000
00f000
fffff0
fffff0
fffff0
fffff0
00f000
00f000
00f000
00f000
00f000
00f000
00f000
00f000
00f000
ENDCHAR
STARTCHAR comma
ENCODING 44
SWIDTH 343 0
DWIDTH 12 0
BBX 7 13 2 -6
BITMAP
fe
fe
fe
fe
fe
fe
fe
1e
1e
3c
3c
f8
e0
ENDCHAR
STARTCHAR minus
ENCODING 45
SWIDTH 687 0
DWIDTH 23 0
BBX 20 4 2 8
BITMAP
fffff0
fffff0
fffff0
fffff0
ENDCHAR
STARTCHAR period
ENCODING 46
SWIDTH 343 0
DWIDTH 12 0
BBX 7 7 2 0
BITMAP
fe
fe
fe
fe
fe
fe
fe
ENDCHAR
STARTCHAR slash
ENCODING 47
SWIDTH 596 0
DWIDTH 20 0
BBX 20 32 0 -6
BITMAP
0001f0
0003f0
0003e0
0007e0
0007c0
000fc0
000f80
001f80
001f00
003f00
003e00
007e00
007c00
00fc00
00f800
01f800
01f800
01f000
03f000
03e000
07e000
07c000
0fc000
0f8000
1f8000
1f0000
3f0000
3e0000
7e0000
7c0000
fc0000
f80000
ENDCHAR
STARTCHAR zero
ENCODING 48
SWIDTH 687 0
DWIDTH 23 0
BBX 21 25 1 0
BITMAP
01fc00
07ff00
0fff80
1fffc0
3f8fe0
3f07e0
7f07f0
7e03f0
fe03f8
fe03f8
fe03f8
fe03f8
fe03f8
fe03f8
fe03f8
fe03f8
fe03f8
7e03f0
7f07f0
3f07e0
3f8fe0
1fffc0
0fff80
07ff00
01fc00
ENDCHAR
STARTCHAR one
ENCODING 49
SWIDTH 687 0
DWIDTH 23 0
BBX 10 25 5 0
BITMAP
ffc0
ffc0
ffc0
ffc0
1fc0
1fc0
1fc0
1fc0
1fc0
1fc0
1fc0
1fc0
1fc0
1fc0
1fc0
1fc0
1fc0
1fc0
1fc0
1fc0
1fc0
1fc0
1fc0
1fc0
1fc0
ENDCHAR
STARTCHAR two
ENCODING 50
SWIDTH 687 0
DWIDTH 23 0
BBX 18 25 2 0
BITMAP
0ff800
7ffe00
7fff00
7fff80
707fc0
403fc0
001fc0
001fc0
001fc0
003f80
003f80
007f00
00fe00
01fc00
03f800
07f000
0fc000
1f8000
3f0000
fe0000
ffffc0
ffffc0
ffffc0
ffffc0
ffffc0
ENDCHAR
STARTCHAR three
ENCODING 51
SWIDTH 687 0
DWIDTH 23 0
BBX 18 25 3 0
BITMAP
1ff000
fffc00
ffff00
ffff00
c07f80
003f80
003f80
003f80
007f00
00ff00
3ffc00
3ff000
3ffc00
3ffe00
00ff00
003f80
001fc0
001fc0
001fc0
003fc0
c07fc0
ffff80
ffff00
fffe00
7ff000
ENDCHAR
STARTCHAR four
ENCODING 52
SWIDTH 687 0
DWIDTH 23 0
BBX 21 25 1 0
BITMAP
000fe0
001fe0
003fe0
007fe0
00ffe0
01ffe0
03ffe0
07efe0
07cfe0
0f8fe0
1f0fe0
3e0fe0
7e0fe0
fc0fe0
fffff8
fffff8
fffff8
fffff8
fffff8
000fe0
000fe0
000fe0
000fe0
000fe0
000fe0
ENDCHAR
STARTCHAR five
ENCODING 53
SWIDTH 687 0
DWIDTH 23 0
BBX 17 25 4 0
BITMAP
ffff00
ffff00
ffff00
ffff00
ffff00
f00000
f00000
f00000
f00000
ffc000
fff000
fffc00
fffe00
03ff00
00ff00
007f80
003f80
003f80
003f80
007f80
c0ff00
ffff00
fffe00
fff800
3fe000
ENDCHAR
STARTCHAR six
ENCODING 54
SWIDTH 687 0
DWIDTH 23 0
BBX 20 25 1 0
BITMAP
00ff80
03ffe0
0fffe0
1fffe0
3fe060
3f8000
7f0000
7f0000
7e0000
fe3e00
feff80
ffffc0
ffffe0
ff0fe0
ff0ff0
fe07f0
fe07f0
7e07f0
7e07f0
7f0ff0
3f0fe0
1fffc0
1fff80
07ff00
01fc00
ENDCHAR
STARTCHAR seven
ENCODING 55
SWIDTH 687 0
DWIDTH 23 0
BBX 18 25 4 0
BITMAP
ffffc0
ffffc0
ffffc0
ffffc0
ffffc0
000fc0
001f80
001f00
003e00
007e00
00fc00
01f800
01f000
03f000
07e000
07c000
0fc000
1fc000
1f8000
3f8000
3f8000
3f0000
7f0000
7f0000
7f0000
ENDCHAR
STARTCHAR eight
ENCODING 56
SWIDTH 687 0
DWIDTH 23 0
BBX 20 25 2 0
BITMAP
03fc00
0fff80
1fffc0
3fffe0
7f0fe0
7e07e0
7e07e0
7f07e0
3f87c0
3fef80
1fff00
07fe00
0fff80
1fffc0
3f3fe0
7e0fe0
fe07f0
fe03f0
fe03f0
ff03f0
ff87e0
7fffe0
3fffc0
1fff00
03fc00
ENDCHAR
STARTCHAR nine
ENCODING 57
SWIDTH 687 0
DWIDTH 23 0
BBX 20 25 2 0
BITMAP
03f800
0ffe00
1fff80
3fff80
7f0fc0
7f0fe0
fe07e0
fe07e0
fe07f0
fe07f0
ff0ff0
7f0ff0
7ffff0
3ffff0
1ff7f0
07c7f0
0007e0
000fe0
000fe0
001fc0
607fc0
7fff80
7fff00
7ffc00
1ff000
ENDCHAR
STARTCHAR colon
ENCODING 58
SWIDTH 343 0
DWIDTH 12 0
BBX 7 18 2 0
BITMAP
fe
fe
fe
fe
fe
fe
fe
00
00
00
00
fe
fe
fe
fe
fe
fe
fe
ENDCHAR
STARTCHAR semicolon
ENCODING 59
SWIDTH 343 0
DWIDTH 12 0
BBX 7 24 2 -6
BITMAP
fe
fe
fe
fe
fe
fe
fe
00
00
00
00
00
fe
fe
fe
fe
fe
fe
1e
1e
3c
3c
f8
e0
ENDCHAR
STARTCHAR less
ENCODING 60
SWIDTH 687 0
DWIDTH 23 0
BBX 20 21 2 0
BITMAP
000010
000070
0001f0
0007f0
001ff0
007fc0
01ff00
03fc00
0ff000
3fc000
ff8000
3fc000
0ff000
03fc00
01ff00
007fc0
001ff0
0007f0
0001f0
000070
000010
ENDCHAR
STARTCHAR equal
ENCODING 61
SWIDTH 687 0
DWIDTH 23 0
BBX 20 13 2 3
BITMAP
fffff0
fffff0
fffff0
fffff0
000000
000000
000000
000000
000000
fffff0
fffff0
fffff0
fffff0
ENDCHAR
STARTCHAR greater
ENCODING 62
SWIDTH 687 0
DWIDTH 23 0
BBX 20 21 2 0
BITMAP
800000
e00000
f80000
fe0000
ff8000
3fe000
0ff800
03fc00
00ff00
003fc0
000ff0
003fc0
00ff00
03fc00
0ff800
3fe000
ff8000
fe0000
f80000
e00000
800000
ENDCHAR
STARTCHAR question
ENCODING 63
SWIDTH 572 0
DWIDTH 19 0
BBX 17 25 1 0
BITMAP
3ff000
fffc00
ffff00
ffff00
e07f80
803f80
003f80
003f80
003f00
007e00
007c00
00f800
01f800
03f000
07e000
0fe000
0fe000
0fe000
000000
000000
0fe000
0fe000
0fe000
0fe000
0fe000
ENDCHAR
STARTCHAR at
ENCODING 64
SWIDTH 833 0
DWIDTH 28 0
BBX 27 25 3 0
BITMAP
000ff000
007ffc00
01fffe00
03f01f00
07c00780
0f0003c0
1e0001c0
3c0ff1e0
383fe0e0
787860e0
70f060e0
f0e0e0e0
e1e1e0e0
e1c1c1e0
e3c3c1c0
e3c7c3c0
e3cec780
e3fcff00
73f8fe00
79e0f800
3c000000
3f030000
1fff0000
07ff8000
01fc0000
ENDCHAR
STARTCHAR A
ENCODING 65
SWIDTH 773 0
DWIDTH 26 0
BBX 25 25 1 0
BITMAP
007f0000
007f8000
00ff8000
00ff8000
00ffc000
01ffc000
01ffe000
01efe000
03cfe000
03cff000
07c7f000
0787f000
0787f800
0f83f800
0f03fc00
0ffffc00
1ffffc00
1ffffe00
1ffffe00
3c00fe00
3c007f00
7c007f00
78003f80
78003f80
f0003f80
ENDCHAR
STARTCHAR B
ENCODING 66
SWIDTH 669 0
DWIDTH 23 0
BBX 19 25 3 0
BITMAP
fffc00
ffff00
ffff80
ffffc0
fe3fc0
fe1fc0
fe1fc0
fe1fc0
fe3f80
fe3f00
fffe00
fff800
fffc00
ffff00
fe3fc0
fe1fc0
fe0fe0
fe0fe0
fe0fe0
fe0fe0
fe1fe0
ffffc0
ffffc0
ffff80
fffe00
ENDCHAR
STARTCHAR C
ENCODING 67
SWIDTH 726 0
DWIDTH 25 0
BBX 23 25 1 0
BITMAP
003ff8
01fffe
07fffe
1ffffe
1ff00e
3fc000
7f8000
7f0000
7f0000
fe0000
fe0000
fe0000
fe0000
fe0000
fe0000
ff0000
7f0000
7f8000
7fc002
3ff00e
1ffffe
1ffffe
07fffe
03fffe
007fe0
ENDCHAR
STARTCHAR D
ENCODING 68
SWIDTH 819 0
DWIDTH 28 0
BBX 24 25 3 0
BITMAP
ffff00
ffffe0
fffff0
fffff8
fe07fc
fe01fe
fe01fe
fe00fe
fe007f
fe007f
fe007f
fe007f
fe007f
fe007f
fe007f
fe007f
fe00fe
fe00fe
fe01fe
fe07fc
fffffc
fffff8
fffff0
ffffc0
ffff00
ENDCHAR
STARTCHAR E
ENCODING 69
SWIDTH 645 0
DWIDTH 22 0
BBX 18 25 3 0
BITMAP
ffff80
ffff80
ffff80
ffff80
fe0000
fe0000
fe0000
fe0000
fe0000
fe0000
fffe00
fffe00
fffe00
fffe00
fe0000
fe0000
fe0000
fe0000
fe0000
fe0000
fe0000
ffffc0
ffffc0
ffffc0
ffffc0
ENDCHAR
STARTCHAR F
ENCODING 70
SWIDTH 602 0
DWIDTH 20 0
BBX 17 25 3 0
BITMAP
ffff80
ffff80
ffff80
ffff80
fe0000
fe0000
fe0000
fe0000
fe0000
fe0000
fe0000
fffe00
fffe00
fffe00
fffe00
fe0000
fe0000
fe0000
fe0000
fe0000
fe0000
fe0000
fe0000
fe0000
fe0000
ENDCHAR
STARTCHAR G
ENCODING 71
SWIDTH 759 0
DWIDTH 26 0
BBX 22 25 1 0
BITMAP
007ffc
03fffc
07fffc
1ffffc
3ff00c
3fc000
7f8000
7f0000
ff0000
fe0000
fe0000
fe0000
fe0000
fe01fc
fe01fc
fe01fc
ff01fc
7f01fc
7f81fc
3fc1fc
3ff1fc
1ffffc
0ffffc
03fffc
007fe0
ENDCHAR
STARTCHAR H
ENCODING 72
SWIDTH 813 0
DWIDTH 28 0
BBX 22 25 3 0
BITMAP
fe01fc
fe01fc
fe01fc
fe01fc
fe01fc
fe01fc
fe01fc
fe01fc
fe01fc
fe01fc
fffffc
fffffc
fffffc
fffffc
fe01fc
fe01fc
fe01fc
fe01fc
fe01fc
fe01fc
fe01fc
fe01fc
fe01fc
fe01fc
fe01fc
ENDCHAR
STARTCHAR I
ENCODING 73
SWIDTH 361 0
DWIDTH 12 0
BBX 7 25 3 0
BITMAP
fe
fe
fe
fe
fe
fe
fe
fe
fe
fe
fe
fe
fe
fe
fe
fe
fe
fe
fe
fe
fe
fe
fe
fe
fe
ENDCHAR
STARTCHAR J
ENCODING 74
SWIDTH 501 0
DWIDTH 17 0
BBX 14 31 0 -6
BITMAP
01fc
01fc
01fc
01fc
01fc
01fc
01fc
01fc
01fc
01fc
01fc
01fc
01fc
01fc
01fc
01fc
01fc
01fc
01fc
01fc
01fc
01fc
01fc
01fc
01fc
01fc
83f8
fff8
fff0
fff0
7fc0
ENDCHAR
STARTCHAR K
ENCODING 75
SWIDTH 753 0
DWIDTH 26 0
BBX 23 25 3 0
BITMAP
fe01f0
fe03e0
fe03c0
fe07c0
fe0f80
fe0f00
fe1f00
fe3e00
fe7c00
fe7c00
fef800
fffc00
fffc00
fffe00
ffff00
feff00
fe7f80
fe7fc0
fe3fc0
fe1fe0
fe1ff0
fe0ff0
fe0ff8
fe07fc
fe03fe
ENDCHAR
STARTCHAR L
ENCODING 76
SWIDTH 620 0
DWIDTH 21 0
BBX 18 25 3 0
BITMAP
fe0000
fe0000
fe0000
fe0000
fe0000
fe0000
fe0000
fe0000
fe0000
fe0000
fe0000
fe0000
fe0000
fe0000
fe0000
fe0000
fe0000
fe0000
fe0000
fe0000
fe0000
ffffc0
ffffc0
ffffc0
ffffc0
ENDCHAR
STARTCHAR M
ENCODING 77
SWIDTH 940 0
DWIDTH 32 0
BBX 26 25 3 0
BITMAP
ff803fc0
ff803fc0
ff807fc0
ffc07fc0
ffc07fc0
ffc0ffc0
ffe0ffc0
ffe0ffc0
ffe1ffc0
fff1ffc0
fbf1ffc0
fbf3dfc0
fbfbdfc0
f9fbdfc0
f9ff9fc0
f9ff9fc0
f8ff9fc0
f8ff9fc0
f8ff1fc0
f8ff1fc0
f87f1fc0
f87e1fc0
f87e1fc0
f8001fc0
f8001fc0
ENDCHAR
STARTCHAR N
ENCODING 78
SWIDTH 783 0
DWIDTH 27 0
BBX 21 25 3 0
BITMAP
fc00f8
fe00f8
ff00f8
ff00f8
ff80f8
ffc0f8
ffe0f8
ffe0f8
fff0f8
fff8f8
fff8f8
fbfcf8
fbfef8
f9fef8
f8fff8
f8fff8
f87ff8
f83ff8
f83ff8
f81ff8
f80ff8
f807f8
f807f8
f803f8
f801f8
ENDCHAR
STARTCHAR O
ENCODING 79
SWIDTH 855 0
DWIDTH 29 0
BBX 27 25 1 0
BITMAP
007fc000
03fff800
07fffc00
0ffffe00
1fe0ff00
3fc07f80
7f803fc0
7f001fc0
7f001fc0
fe000fe0
fe000fe0
fe000fe0
fe000fe0
fe000fe0
fe000fe0
fe000fe0
7f001fc0
7f001fc0
7f803fc0
3fc07f80
1fe0ff00
0ffffe00
07fffc00
03fff800
007fc000
ENDCHAR
STARTCHAR P
ENCODING 80
SWIDTH 657 0
DWIDTH 22 0
BBX 19 25 3 0
BITMAP
fffe00
ffff80
ffffc0
ffffe0
fe1fe0
fe0fe0
fe0fe0
fe0fe0
fe0fe0
fe1fe0
fe3fc0
ffffc0
ffff80
ffff00
fff800
fe0000
fe0000
fe0000
fe0000
fe0000
fe0000
fe0000
fe0000
fe0000
fe0000
ENDCHAR
STARTCHAR Q
ENCODING 81
SWIDTH 855 0
DWIDTH 29 0
BBX 31 31 1 -6
BITMAP
007fc000
03fff800
07fffc00
0ffffe00
1fe0ff00
3fc07f80
7f803fc0
7f001fc0
7f001fc0
fe000fe0
fe000fe0
fe000fe0
fe000fe0
fe000fe0
fe000fe0
fe000fe0
7f001fc0
7f001fc0
7f803fc0
3fc07f80
1fe0ff00
0ffffe00
07fffc00
03fff800
007ffc00
0001fff0
00007ffe
00003ffc
00001ff8
000007f0
000000e0
ENDCHAR
STARTCHAR R
ENCODING 82
SWIDTH 734 0
DWIDTH 25 0
BBX 23 25 3 0
BITMAP
fffe00
ffff80
ffffc0
ffffc0
fe1fe0
fe0fe0
fe0fe0
fe0fe0
fe0fe0
fe1fc0
fe3fc0
ffff80
ffff00
fffe00
ffff00
fe7f80
fe3f80
fe3fc0
fe1fc0
fe1fe0
fe0ff0
fe0ff0
fe07f8
fe07fc
fe03fe
ENDCHAR
STARTCHAR S
ENCODING 83
SWIDTH 594 0
DWIDTH 20 0
BBX 18 25 1 0
BITMAP
07ff00
1fff00
3fff00
7fff00
ff0300
fe0000
fe0000
ff0000
ffc000
ffe000
7ff800
3ffc00
1fff00
0fff80
03ff80
00ffc0
007fc0
001fc0
001fc0
001fc0
c03f80
ffff80
ffff00
fffe00
fff000
ENDCHAR
STARTCHAR T
ENCODING 84
SWIDTH 735 0
DWIDTH 25 0
BBX 25 25 0 0
BITMAP
ffffff80
ffffff80
ffffff80
ffffff80
007f0000
007f0000
007f0000
007f0000
007f0000
007f0000
007f0000
007f0000
007f0000
007f0000
007f0000
007f0000
007f0000
007f0000
007f0000
007f0000
007f0000
007f0000
007f0000
007f0000
007f0000
ENDCHAR
STARTCHAR U
ENCODING 85
SWIDTH 783 0
DWIDTH 27 0
BBX 21 25 3 0
BITMAP
fe03f8
fe03f8
fe03f8
fe03f8
fe03f8
fe03f8
fe03f8
fe03f8
fe03f8
fe03f8
fe03f8
fe03f8
fe03f8
fe03f8
fe03f8
fe03f8
fe03f8
fe03f8
fe03f8
7f07f0
7f8ff0
3fffe0
1fffe0
0fff80
01fe00
ENDCHAR
STARTCHAR V
ENCODING 86
SWIDTH 735 0
DWIDTH 25 0
BBX 24 25 0 0
BITMAP
fe000f
ff001e
7f001e
7f003e
7f803c
3f803c
3f807c
3fc078
1fc078
1fe0f8
1fe0f0
0fe0f0
0ff1f0
07f1e0
07f1e0
07fbe0
03fbc0
03fbc0
03ffc0
01ff80
01ff80
01ff80
00ff00
00ff00
00fe00
ENDCHAR
STARTCHAR W
ENCODING 87
SWIDTH 940 0
DWIDTH 32 0
BBX 31 25 1 0
BITMAP
fe03e01e
fe07f01e
fe07f03c
ff07f03c
7f07f03c
7f07f03c
7f0ff878
7f0ff878
7f8ff878
3f8ff878
3f9ff8f0
3f9efcf0
3fdefcf0
1fdefcf0
1fdefde0
1ffcffe0
1ffc7fe0
0ffc7fe0
0ffc7fe0
0ff87fc0
0ff83fc0
07f83fc0
07f83fc0
07f83f80
07f03f80
ENDCHAR
STARTCHAR X
ENCODING 88
SWIDTH 699 0
DWIDTH 24 0
BBX 22 25 1 0
BITMAP
ff00fc
7f80f8
7f81f0
3fc1e0
1fe3e0
1fe7c0
0ff780
0fff80
07ff00
07ff00
03fe00
01fe00
01fe00
01ff00
01ff00
03ff80
07ff80
07ffc0
0f9fe0
0f1fe0
1f0ff0
3e0ff0
3c07f8
7c07f8
f803fc
ENDCHAR
STARTCHAR Y
ENCODING 89
SWIDTH 738 0
DWIDTH 25 0
BBX 23 25 1 0
BITMAP
ff003e
ff003c
7f807c
3fc0f8
3fc0f0
1fe1f0
1fe1e0
0ff3e0
0ff7c0
07ffc0
07ff80
03ff80
03ff00
01fe00
00fe00
00fe00
00fe00
00fe00
00fe00
00fe00
00fe00
00fe00
00fe00
00fe00
00fe00
ENDCHAR
STARTCHAR Z
ENCODING 90
SWIDTH 675 0
DWIDTH 23 0
BBX 19 25 2 0
BITMAP
7fffe0
7fffe0
7fffe0
7fffe0
001fe0
003fc0
007fc0
007f80
00ff00
01ff00
01fe00
03fc00
07fc00
07f800
0ff000
1ff000
1fe000
3fc000
7fc000
7f8000
ff0000
ffffe0
ffffe0
ffffe0
ffffe0
ENDCHAR
STARTCHAR bracketleft
ENCODING 91
SWIDTH 386 0
DWIDTH 13 0
BBX 9 32 2 -6
BITMAP
ff80
ff80
ff80
ff80
fc00
fc00
fc00
fc00
fc00
fc00
fc00
fc00
fc00
fc00
fc00
fc00
fc00
fc00
fc00
fc00
fc00
fc00
fc00
fc00
fc00
fc00
fc00
fc00
ff80
ff80
ff80
ff80
ENDCHAR
STARTCHAR backslash
ENCODING 92
SWIDTH 596 0
DWIDTH 20 0
BBX 20 32 0 -6
BITMAP
f80000
fc0000
7c0000
7e0000
3e0000
3f0000
1f0000
1f8000
0f8000
0fc000
07c000
07e000
03e000
03f000
01f000
01f800
01f800
00f800
00fc00
007c00
007e00
003e00
003f00
001f00
001f80
000f80
000fc0
0007c0
0007e0
0003e0
0003f0
0001f0
ENDCHAR
STARTCHAR bracketright
ENCODING 93
SWIDTH 386 0
DWIDTH 13 0
BBX 9 32 2 -6
BITMAP
ff80
ff80
ff80
ff80
1f80
1f80
1f80
1f80
1f80
1f80
1f80
1f80
1f80
1f80
1f80
1f80
1f80
1f80
1f80
1f80
1f80
1f80
1f80
1f80
1f80
1f80
1f80
1f80
ff80
ff80
ff80
ff80
ENDCHAR
STARTCHAR asciicircum
ENCODING 94
SWIDTH 687 0
DWIDTH 23 0
BBX 20 21 2 4
BITMAP
002000
006000
006000
00f000
00f000
01f800
01f800
03fc00
03fc00
07fe00
079e00
0f9f00
0f0f00
1f0f80
1e0780
3e07c0
3c03c0
3c03c0
7c03e0
7801e0
f801f0
ENDCHAR
STARTCHAR underscore
ENCODING 95
SWIDTH 500 0
DWIDTH 17 0
BBX 15 4 1 -5
BITMAP
fffe
fffe
fffe
fffe
ENDCHAR
STARTCHAR grave
ENCODING 96
SWIDTH 675 0
DWIDTH 23 0
BBX 9 5 6 21
BITMAP
fc00
3c00
1e00
0f00
0780
ENDCHAR
STARTCHAR a
ENCODING 97
SWIDTH 623 0
DWIDTH 21 0
BBX 19 18 1 0
BITMAP
0ff800
3ffe00
3fff00
3fff80
307f80
203f80
003f80
0fff80
3fff80
7fff80
ffff80
ff3f80
fe3f80
fe7f80
ffffe0
7fffe0
3fdfe0
1f8fe0
ENDCHAR
STARTCHAR b
ENCODING 98
SWIDTH 696 0
DWIDTH 24 0
BBX 20 26 3 0
BITMAP
fe0000
fe0000
fe0000
fe0000
fe0000
fe0000
fe0000
fe0000
fe3f00
fe7f80
feffc0
ffffe0
ffffe0
ff0ff0
fe0ff0
fe07f0
fe07f0
fe07f0
fe07f0
fe07f0
fe0fe0
ff1fe0
ffffe0
ffffc0
fdff80
fc7e00
ENDCHAR
STARTCHAR c
ENCODING 99
SWIDTH 545 0
DWIDTH 19 0
BBX 16 18 1 0
BITMAP
03fe
0fff
1fff
3fff
7f83
7f00
ff00
fe00
fe00
fe00
fe00
fe00
7f00
7f81
3fff
3fff
0fff
03ff
ENDCHAR
STARTCHAR d
ENCODING 100
SWIDTH 696 0
DWIDTH 24 0
BBX 20 26 1 0
BITMAP
0007f0
0007f0
0007f0
0007f0
0007f0
0007f0
0007f0
0007f0
07c7f0
1ff7f0
3ffff0
7ffff0
7f8ff0
ff07f0
fe07f0
fe07f0
fe07f0
fe07f0
fe07f0
ff07f0
ff0ff0
7ffff0
7ffff0
3ff7f0
1fe7f0
0fc7f0
ENDCHAR
STARTCHAR e
ENCODING 101
SWIDTH 614 0
DWIDTH 21 0
BBX 18 18 1 0
BITMAP
03f800
0ffe00
3fff00
3fff80
7e3f80
7e1fc0
ffffc0
ffffc0
ffffc0
ffffc0
fe0000
fe0000
7f80c0
7fffc0
3fffc0
1fffc0
0fffc0
01fe00
ENDCHAR
STARTCHAR f
ENCODING 102
SWIDTH 461 0
DWIDTH 16 0
BBX 15 26 1 0
BITMAP
03fc
0ffe
1ffe
1ffe
3fc2
3f80
3f80
3f80
fff8
fff8
fff8
fff8
3f80
3f80
3f80
3f80
3f80
3f80
3f80
3f80
3f80
3f80
3f80
3f80
3f80
3f80
ENDCHAR
STARTCHAR g
ENCODING 103
SWIDTH 696 0
DWIDTH 24 0
BBX 20 25 1 -7
BITMAP
07e3f0
1ffbf0
3ffff0
3ffff0
7f8ff0
7f07f0
fe07f0
fe07f0
fe07f0
fe07f0
fe07f0
ff0ff0
ff0ff0
7ffff0
7ff7f0
3ff7f0
1fe7f0
0f87f0
0007f0
300ff0
3fffe0
3fffe0
3fffc0
3fff00
07fc00
ENDCHAR
STARTCHAR h
ENCODING 104
SWIDTH 693 0
DWIDTH 24 0
BBX 18 26 3 0
BITMAP
fe0000
fe0000
fe0000
fe0000
fe0000
fe0000
fe0000
fe0000
fe3e00
fe7f80
feff80
ffffc0
ffffc0
ffffc0
ff1fc0
ff1fc0
fe1fc0
fe1fc0
fe1fc0
fe1fc0
fe1fc0
fe1fc0
fe1fc0
fe1fc0
fe1fc0
fe1fc0
ENDCHAR
STARTCHAR i
ENCODING 105
SWIDTH 361 0
DWIDTH 12 0
BBX 7 26 3 0
BITMAP
fe
fe
fe
fe
fe
00
00
00
fe
fe
fe
fe
fe
fe
fe
fe
fe
fe
fe
fe
fe
fe
fe
fe
fe
fe
ENDCHAR
STARTCHAR j
ENCODING 106
SWIDTH 361 0
DWIDTH 12 0
BBX 13 33 -2 -7
BITMAP
03f8
03f8
03f8
03f8
03f8
0000
0000
0000
03f8
03f8
03f8
03f8
03f8
03f8
03f8
03f8
03f8
03f8
03f8
03f8
03f8
03f8
03f8
03f8
03f8
03f8
03f8
03f8
87f8
fff0
fff0
ffe0
7f80
ENDCHAR
STARTCHAR k
ENCODING 107
SWIDTH 681 0
DWIDTH 23 0
BBX 21 26 3 0
BITMAP
fe0000
fe0000
fe0000
fe0000
fe0000
fe0000
fe0000
fe0000
fe07c0
fe0f80
fe1f00
fe1f00
fe3e00
fe7c00
fe7c00
fefc00
fffc00
fffe00
feff00
feff00
fe7f80
fe7fc0
fe3fc0
fe1fe0
fe1ff0
fe0ff8
ENDCHAR
STARTCHAR l
ENCODING 108
SWIDTH 361 0
DWIDTH 12 0
BBX 7 26 3 0
BITMAP
fe
fe
fe
fe
fe
fe
fe
fe
fe
fe
fe
fe
fe
fe
fe
fe
fe
fe
fe
fe
fe
fe
fe
fe
fe
fe
ENDCHAR
STARTCHAR m
ENCODING 109
SWIDTH 1006 0
DWIDTH 34 0
BBX 29 18 3 0
BITMAP
fe3e07e0
feff8ff0
fdff9ff8
fffffff8
fffffff8
fffffff8
ff1fe3f8
fe1fc3f8
fe1fc3f8
fe1fc3f8
fe1fc3f8
fe1fc3f8
fe1fc3f8
fe1fc3f8
fe1fc3f8
fe1fc3f8
fe1fc3f8
fe1fc3f8
ENDCHAR
STARTCHAR n
ENCODING 110
SWIDTH 693 0
DWIDTH 24 0
BBX 18 18 3 0
BITMAP
fe3e00
feff80
feff80
ffffc0
ffffc0
ffffc0
ff1fc0
ff1fc0
fe1fc0
fe1fc0
fe1fc0
fe1fc0
fe1fc0
fe1fc0
fe1fc0
fe1fc0
fe1fc0
fe1fc0
ENDCHAR
STARTCHAR o
ENCODING 111
SWIDTH 675 0
DWIDTH 23 0
BBX 20 18 1 0
BITMAP
03fc00
0fff00
1fff80
3fffc0
7f9fe0
7f0fe0
fe07f0
fe07f0
fe07f0
fe07f0
fe07f0
fe07f0
7f0fe0
7f9fe0
3fffc0
1fff80
0fff00
03fc00
ENDCHAR
STARTCHAR p
ENCODING 112
SWIDTH 696 0
DWIDTH 24 0
BBX 20 25 3 -7
BITMAP
fe3f00
fe7f80
feffc0
ffffe0
ffffe0
ff0ff0
fe0ff0
fe07f0
fe07f0
fe07f0
fe07f0
fe07f0
fe0ff0
ff1fe0
ffffe0
ffffc0
feff80
fe3e00
fe0000
fe0000
fe0000
fe0000
fe0000
fe0000
fe0000
ENDCHAR
STARTCHAR q
ENCODING 113
SWIDTH 696 0
DWIDTH 24 0
BBX 20 25 1 -7
BITMAP
07e3f0
1ffbf0
3ffff0
7ffff0
7f8ff0
7f07f0
fe07f0
fe07f0
fe07f0
fe07f0
fe07f0
ff07f0
ff0ff0
7ffff0
7ffff0
3ff7f0
1fe7f0
0fc7f0
0007f0
0007f0
0007f0
0007f0
0007f0
0007f0
0007f0
ENDCHAR
STARTCHAR r
ENCODING 114
SWIDTH 500 0
DWIDTH 17 0
BBX 14 18 3 0
BITMAP
fe3c
fe7c
fefc
fffc
fffc
fffc
ff80
ff00
fe00
fe00
fe00
fe00
fe00
fe00
fe00
fe00
fe00
fe00
ENDCHAR
STARTCHAR s
ENCODING 115
SWIDTH 622 0
DWIDTH 21 0
BBX 17 18 2 0
BITMAP
0ffc00
3ffe00
7ffe00
fffe00
fe0200
fe0000
ff0000
7fe000
3ffc00
1fff00
03ff80
007f80
003f80
c03f80
ffff80
ffff00
fffe00
3ff000
ENDCHAR
STARTCHAR t
ENCODING 116
SWIDTH 436 0
DWIDTH 15 0
BBX 13 23 1 0
BITMAP
0380
3f80
3f80
3f80
3f80
fff8
fff8
fff8
fff8
3f80
3f80
3f80
3f80
3f80
3f80
3f80
3f80
3f80
3fc0
3ff8
1ff8
1ff8
07f8
ENDCHAR
STARTCHAR u
ENCODING 117
SWIDTH 693 0
DWIDTH 24 0
BBX 18 18 3 0
BITMAP
fe1fc0
fe1fc0
fe1fc0
fe1fc0
fe1fc0
fe1fc0
fe1fc0
fe1fc0
fe1fc0
fe1fc0
fe1fc0
fe3fc0
fe3fc0
ffffc0
ffffc0
7fdfc0
7fdfc0
1f1fc0
ENDCHAR
STARTCHAR v
ENCODING 118
SWIDTH 663 0
DWIDTH 23 0
BBX 21 18 1 0
BITMAP
ff00f8
ff00f0
7f00f0
7f81f0
3f81e0
3fc3e0
3fc3c0
1fc3c0
1fe7c0
0fe780
0ff780
0fff00
07ff00
07ff00
03fe00
03fe00
01fc00
01fc00
ENDCHAR
STARTCHAR w
ENCODING 119
SWIDTH 885 0
DWIDTH 30 0
BBX 28 18 1 0
BITMAP
fc0fc0f0
fc1fc1f0
fe1fc1e0
7e1fc1e0
7e1fe1e0
7e3fe3c0
7f3fe3c0
3f3fe3c0
3f7ff7c0
3f79f780
3ff9f780
1ff9ff80
1ff1ff00
1ff0ff00
1ff0ff00
0ff0ff00
0fe0fe00
0fe07e00
ENDCHAR
STARTCHAR x
ENCODING 120
SWIDTH 568 0
DWIDTH 19 0
BBX 18 18 1 0
BITMAP
ff07c0
7f0f80
3f9f00
3f9e00
1ffe00
0ffc00
0ffc00
07f800
07f800
03f800
07fc00
0ffc00
0ffe00
1ffe00
3e7f00
3c3f80
7c3f80
f81fc0
ENDCHAR
STARTCHAR y
ENCODING 121
SWIDTH 645 0
DWIDTH 22 0
BBX 21 25 1 -7
BITMAP
ff00f8
ff00f0
7f01f0
7f81e0
3f83e0
3f83c0
3fc7c0
1fc780
1fef80
0fef00
0fff00
0ffe00
07fe00
07fc00
07fc00
03f800
03f800
01f800
01f000
03f000
03e000
07e000
0fc000
1fc000
3f8000
ENDCHAR
STARTCHAR z
ENCODING 122
SWIDTH 608 0
DWIDTH 21 0
BBX 17 18 2 0
BITMAP
ffff80
ffff80
ffff80
ffff80
00ff80
01ff00
03fe00
07fc00
0ffc00
1ff800
3ff000
7fe000
ffc000
ff8000
ffff80
ffff80
ffff80
ffff80
ENDCHAR
STARTCHAR braceleft
ENCODING 123
SWIDTH 386 0
DWIDTH 13 0
BBX 10 32 2 -6
BITMAP
07c0
0fc0
1fc0
3fc0
3f80
3f80
3f80
3f80
3f80
3f80
3f80
3f80
3f80
3f00
fe00
fc00
fc00
fe00
3f00
3f80
3f80
3f80
3f80
3f80
3f80
3f80
3f80
3f80
3fc0
1fc0
0fc0
07c0
ENDCHAR
STARTCHAR bar
ENCODING 124
SWIDTH 265 0
DWIDTH 9 0
BBX 4 32 3 -6
BITMAP
f0
f0
f0
f0
f0
f0
f0
f0
f0
f0
f0
f0
f0
f0
f0
f0
f0
f0
f0
f0
f0
f0
f0
f0
f0
f0
f0
f0
f0
f0
f0
f0
ENDCHAR
STARTCHAR braceright
ENCODING 125
SWIDTH 386 0
DWIDTH 13 0
BBX 10 32 2 -6
BITMAP
f800
fc00
fe00
ff00
7f00
7f00
7f00
7f00
7f00
7f00
7f00
7f00
7f00
3f00
1fc0
0fc0
0fc0
1fc0
3f00
7f00
7f00
7f00
7f00
7f00
7f00
7f00
7f00
7f00
ff00
fe00
fc00
f800
ENDCHAR
STARTCHAR asciitilde
ENCODING 126
SWIDTH 687 0
DWIDTH 23 0
BBX 20 7 2 6
BITMAP
1f00f0
7fc0f0
7ff9f0
fffff0
f9ffe0
f03fe0
f00f80
ENDCHAR
STARTCHAR nobreakspace
ENCODING 160
SWIDTH 343 0
DWIDTH 12 0
BBX 1 1 0 0
BITMAP
00
ENDCHAR
STARTCHAR Aogonek
ENCODING 161
SWIDTH 773 0
DWIDTH 26 0
BBX 25 30 1 -5
BITMAP
007f0000
007f8000
00ff8000
00ff8000
00ffc000
01ffc000
01ffe000
01efe000
03cfe000
03cff000
07c7f000
0787f000
0787f800
0f83f800
0f03fc00
0ffffc00
1ffffc00
1ffffe00
1ffffe00
3c00fe00
3c007f00
7c007f00
78003f80
78003f80
f0003f80
001c0000
00380000
00380000
003f0000
001f0000
ENDCHAR
STARTCHAR breve
ENCODING 162
SWIDTH 675 0
DWIDTH 23 0
BBX 12 5 5 21
BITMAP
f0f0
ffe0
7fe0
3fc0
1f00
ENDCHAR
STARTCHAR Lstroke
ENCODING 163
SWIDTH 620 0
DWIDTH 21 0
BBX 21 25 0 0
BITMAP
1fc000
1fc000
1fc000
1fc000
1fc000
1fc000
1fc000
1fc800
1ff800
1ff800
1ff800
1ff000
3fe000
ffc000
ffc000
ffc000
ffc000
9fc000
1fc000
1fc000
1fc000
1ffff8
1ffff8
1ffff8
1ffff8
ENDCHAR
STARTCHAR currency
ENCODING 164
SWIDTH 687 0
DWIDTH 23 0
BBX 23 25 0 0
BITMAP
200008
70001c
f8003e
fc007e
7c007c
3e00f8
1f7df0
0fffe0
07ffc0
07ffc0
0fffe0
0fc7e0
0f83e0
0f83e0
0f83e0
07c7c0
07ffc0
0fffe0
1ffff0
3ffff8
3e7cf8
7c007c
f8003e
70001c
200008
ENDCHAR
STARTCHAR Lcaron
ENCODING 165
SWIDTH 620 0
DWIDTH 21 0
BBX 18 29 3 0
BITMAP
00fe00
00fe00
00fe00
00fe00
fefe00
fefe00
fefe00
fe1e00
fe3c00
fe3c00
fef800
fee000
fe0000
fe0000
fe0000
fe0000
fe0000
fe0000
fe0000
fe0000
fe0000
fe0000
fe0000
fe0000
fe0000
ffffc0
ffffc0
ffffc0
ffffc0
ENDCHAR
STARTCHAR Sacute
ENCODING 166
SWIDTH 594 0
DWIDTH 20 0
BBX 18 31 1 0
BITMAP
003f00
003c00
007800
00f000
01e000
000000
07ff00
1fff00
3fff00
7fff00
ff0300
fe0000
fe0000
ff0000
ffc000
ffe000
7ff800
3ffc00
1fff00
0fff80
03ff80
00ffc0
007fc0
001fc0
001fc0
001fc0
c03f80
ffff80
ffff00
fffe00
fff000
ENDCHAR
STARTCHAR section
ENCODING 167
SWIDTH 693 0
DWIDTH 23 0
BBX 17 32 3 -7
BITMAP
0fff00
3fff00
7fff00
7fff00
fe0300
fc0000
fe0000
ffc000
7ff000
7ffc00
3ffe00
3fff00
7fff00
7bff80
f8ff80
fc3f80
fe0f80
ff8f80
ffef00
7fff00
7ffe00
3ffe00
0fff00
03ff80
00ff80
003f80
001f80
603f80
7fff00
7fff00
7ffc00
7ff000
ENDCHAR
STARTCHAR diaeresis
ENCODING 168
SWIDTH 675 0
DWIDTH 23 0
BBX 11 4 6 21
BITMAP
f1e0
f1e0
f1e0
f1e0
ENDCHAR
STARTCHAR Scaron
ENCODING 169
SWIDTH 594 0
DWIDTH 20 0
BBX 18 31 1 0
BITMAP
1e1e00
0f3c00
07f800
03f000
03f000
000000
07ff00
1fff00
3fff00
7fff00
ff0300
fe0000
fe0000
ff0000
ffc000
ffe000
7ff800
3ffc00
1fff00
0fff80
03ff80
00ffc0
007fc0
001fc0
001fc0
001fc0
c03f80
ffff80
ffff00
fffe00
fff000
ENDCHAR
STARTCHAR Scedilla
ENCODING 170
SWIDTH 594 0
DWIDTH 20 0
BBX 18 32 1 -7
BITMAP
07ff00
1fff00
3fff00
7fff00
ff0300
fe0000
fe0000
ff0000
ffc000
ffe000
7ff800
3ffc00
1fff00
0fff80
03ff80
00ffc0
007fc0
001fc0
001fc0
001fc0
c03f80
ffff80
ffff00
fffe00
fff000
01c000
018000
03c000
00f000
00f000
07f000
07e000
ENDCHAR
STARTCHAR Tcaron
ENCODING 171
SWIDTH 735 0
DWIDTH 25 0
BBX 25 31 0 0
BITMAP
01e1e000
00f3c000
007f8000
003f0000
003f0000
00000000
ffffff80
ffffff80
ffffff80
ffffff80
007f0000
007f0000
007f0000
007f0000
007f0000
007f0000
007f0000
007f0000
007f0000
007f0000
007f0000
007f0000
007f0000
007f0000
007f0000
007f0000
007f0000
007f0000
007f0000
007f0000
007f0000
ENDCHAR
STARTCHAR Zacute
ENCODING 172
SWIDTH 675 0
DWIDTH 23 0
BBX 19 31 2 0
BITMAP
001f80
001e00
003c00
007800
00f000
000000
7fffe0
7fffe0
7fffe0
7fffe0
001fe0
003fc0
007fc0
007f80
00ff00
01ff00
01fe00
03fc00
07fc00
07f800
0ff000
1ff000
1fe000
3fc000
7fc000
7f8000
ff0000
ffffe0
ffffe0
ffffe0
ffffe0
ENDCHAR
STARTCHAR hyphen
ENCODING 173
SWIDTH 289 0
DWIDTH 10 0
BBX 7 4 1 9
BITMAP
fe
fe
fe
fe
ENDCHAR
STARTCHAR Zcaron
ENCODING 174
SWIDTH 675 0
DWIDTH 23 0
BBX 19 31 2 0
BITMAP
0f0f00
079e00
03fc00
01f800
01f800
000000
7fffe0
7fffe0
7fffe0
7fffe0
001fe0
003fc0
007fc0
007f80
00ff00
01ff00
01fe00
03fc00
07fc00
07f800
0ff000
1ff000
1fe000
3fc000
7fc000
7f8000
ff0000
ffffe0
ffffe0
ffffe0
ffffe0
ENDCHAR
STARTCHAR Zabovedot
ENCODING 175
SWIDTH 675 0
DWIDTH 23 0
BBX 19 31 2 0
BITMAP
01f000
01f000
01f000
01f000
01f000
000000
7fffe0
7fffe0
7fffe0
7fffe0
001fe0
003fc0
007fc0
007f80
00ff00
01ff00
01fe00
03fc00
07fc00
07f800
0ff000
1ff000
1fe000
3fc000
7fc000
7f8000
ff0000
ffffe0
ffffe0
ffffe0
ffffe0
ENDCHAR
STARTCHAR degree
ENCODING 176
SWIDTH 241 0
DWIDTH 8 0
BBX 6 6 1 19
BITMAP
78
fc
cc
cc
fc
78
ENDCHAR
STARTCHAR aogonek
ENCODING 177
SWIDTH 623 0
DWIDTH 21 0
BBX 19 23 1 -5
BITMAP
0ff800
3ffe00
3fff00
3fff80
307f80
203f80
003f80
0fff80
3fff80
7fff80
ffff80
ff3f80
fe3f80
fe7f80
ffffe0
7fffe0
3fdfe0
1f8fe0
00e000
01c000
01c000
01f800
00f800
ENDCHAR
STARTCHAR ogonek
ENCODING 178
SWIDTH 675 0
DWIDTH 23 0
BBX 6 5 9 -6
BITMAP
70
e0
e0
fc
7c
ENDCHAR
STARTCHAR lstroke
ENCODING 179
SWIDTH 361 0
DWIDTH 12 0
BBX 13 26 0 0
BITMAP
1fc0
1fc0
1fc0
1fc0
1fc0
1fc0
1fc0
1fc0
1fc8
1ff8
1ff8
1ff8
1ff0
7fc0
ffc0
ffc0
ffc0
dfc0
9fc0
1fc0
1fc0
1fc0
1fc0
1fc0
1fc0
1fc0
ENDCHAR
STARTCHAR acute
ENCODING 180
SWIDTH 675 0
DWIDTH 23 0
BBX 9 5 8 21
BITMAP
1f80
1e00
3c00
7800
f000
ENDCHAR
STARTCHAR lcaron
ENCODING 181
SWIDTH 600 0
DWIDTH 20 0
BBX 15 30 3 0
BITMAP
00fe
00fe
00fe
00fe
fefe
fefe
fefe
fe1e
fe3c
fe3c
fef8
fee0
fe00
fe00
fe00
fe00
fe00
fe00
fe00
fe00
fe00
fe00
fe00
fe00
fe00
fe00
fe00
fe00
fe00
fe00
ENDCHAR
STARTCHAR sacute
ENCODING 182
SWIDTH 622 0
DWIDTH 21 0
BBX 17 24 2 0
BITMAP
007e00
007800
00f000
01e000
03c000
000000
0ffc00
3ffe00
7ffe00
fffe00
fe0200
fe0000
ff0000
7fe000
3ffc00
1fff00
03ff80
007f80
003f80
c03f80
ffff80
ffff00
fffe00
3ff000
ENDCHAR
STARTCHAR caron
ENCODING 183
SWIDTH 675 0
DWIDTH 23 0
BBX 12 5 5 21
BITMAP
f0f0
79e0
3fc0
1f80
1f80
ENDCHAR
STARTCHAR cedilla
ENCODING 184
SWIDTH 675 0
DWIDTH 23 0
BBX 7 7 8 -7
BITMAP
38
30
78
1e
1e
fe
fc
ENDCHAR
STARTCHAR scaron
ENCODING 185
SWIDTH 622 0
DWIDTH 21 0
BBX 17 24 2 0
BITMAP
3c3c00
1e7800
0ff000
07e000
07e000
000000
0ffc00
3ffe00
7ffe00
fffe00
fe0200
fe0000
ff0000
7fe000
3ffc00
1fff00
03ff80
007f80
003f80
c03f80
ffff80
ffff00
fffe00
3ff000
ENDCHAR
STARTCHAR scedilla
ENCODING 186
SWIDTH 622 0
DWIDTH 21 0
BBX 17 25 2 -7
BITMAP
0ffc00
3ffe00
7ffe00
fffe00
fe0200
fe0000
ff0000
7fe000
3ffc00
1fff00
03ff80
007f80
003f80
c03f80
ffff80
ffff00
fffe00
3ff000
01c000
018000
03c000
00f000
00f000
07f000
07e000
ENDCHAR
STARTCHAR tcaron
ENCODING 187
SWIDTH 570 0
DWIDTH 19 0
BBX 17 31 1 0
BITMAP
003f80
003f80
003f80
003f80
003f80
003f80
003f80
000780
038f00
3f8f00
3fbe00
3fb800
3f8000
fff800
fff800
fff800
fff800
3f8000
3f8000
3f8000
3f8000
3f8000
3f8000
3f8000
3f8000
3f8000
3fc000
3ff800
1ff800
1ff800
07f800
ENDCHAR
STARTCHAR zacute
ENCODING 188
SWIDTH 608 0
DWIDTH 21 0
BBX 17 24 2 0
BITMAP
003f00
003c00
007800
00f000
01e000
000000
ffff80
ffff80
ffff80
ffff80
00ff80
01ff00
03fe00
07fc00
0ffc00
1ff800
3ff000
7fe000
ffc000
ff8000
ffff80
ffff80
ffff80
ffff80
ENDCHAR
STARTCHAR doubleacute
ENCODING 189
SWIDTH 675 0
DWIDTH 23 0
BBX 13 5 7 21
BITMAP
1e78
3cf0
39e0
71c0
e380
ENDCHAR
STARTCHAR zcaron
ENCODING 190
SWIDTH 608 0
DWIDTH 21 0
BBX 17 24 2 0
BITMAP
1e1e00
0f3c00
07f800
03f000
03f000
000000
ffff80
ffff80
ffff80
ffff80
00ff80
01ff00
03fe00
07fc00
0ffc00
1ff800
3ff000
7fe000
ffc000
ff8000
ffff80
ffff80
ffff80
ffff80
ENDCHAR
STARTCHAR zabovedot
ENCODING 191
SWIDTH 608 0
DWIDTH 21 0
BBX 17 24 2 0
BITMAP
03e000
03e000
03e000
03e000
03e000
000000
ffff80
ffff80
ffff80
ffff80
00ff80
01ff00
03fe00
07fc00
0ffc00
1ff800
3ff000
7fe000
ffc000
ff8000
ffff80
ffff80
ffff80
ffff80
ENDCHAR
STARTCHAR Racute
ENCODING 192
SWIDTH 734 0
DWIDTH 25 0
BBX 23 31 3 0
BITMAP
003f00
003c00
007800
00f000
01e000
000000
fffe00
ffff80
ffffc0
ffffc0
fe1fe0
fe0fe0
fe0fe0
fe0fe0
fe0fe0
fe1fc0
fe3fc0
ffff80
ffff00
fffe00
ffff00
fe7f80
fe3f80
fe3fc0
fe1fc0
fe1fe0
fe0ff0
fe0ff0
fe07f8
fe07fc
fe03fe
ENDCHAR
STARTCHAR Aacute
ENCODING 193
SWIDTH 773 0
DWIDTH 26 0
BBX 25 32 1 0
BITMAP
0007e000
00078000
000f0000
001e0000
003c0000
00000000
00000000
007f0000
007f8000
00ff8000
00ff8000
00ffc000
01ffc000
01ffe000
01efe000
03cfe000
03cff000
07c7f000
0787f000
0787f800
0f83f800
0f03fc00
0ffffc00
1ffffc00
1ffffe00
1ffffe00
3c00fe00
3c007f00
7c007f00
78003f80
78003f80
f0003f80
ENDCHAR
STARTCHAR Acircumflex
ENCODING 194
SWIDTH 773 0
DWIDTH 26 0
BBX 25 32 1 0
BITMAP
003f0000
003f0000
007f8000
00f3c000
01e1e000
00000000
00000000
007f0000
007f8000
00ff8000
00ff8000
00ffc000
01ffc000
01ffe000
01efe000
03cfe000
03cff000
07c7f000
0787f000
0787f800
0f83f800
0f03fc00
0ffffc00
1ffffc00
1ffffe00
1ffffe00
3c00fe00
3c007f00
7c007f00
78003f80
78003f80
f0003f80
ENDCHAR
STARTCHAR Abreve
ENCODING 195
SWIDTH 773 0
DWIDTH 26 0
BBX 25 31 1 0
BITMAP
01e1e000
01ffc000
00ffc000
007f8000
003e0000
00000000
007f0000
007f8000
00ff8000
00ff8000
00ffc000
01ffc000
01ffe000
01efe000
03cfe000
03cff000
07c7f000
0787f000
0787f800
0f83f800
0f03fc00
0ffffc00
1ffffc00
1ffffe00
1ffffe00
3c00fe00
3c007f00
7c007f00
78003f80
78003f80
f0003f80
ENDCHAR
STARTCHAR Adiaeresis
ENCODING 196
SWIDTH 773 0
DWIDTH 26 0
BBX 25 31 1 0
BITMAP
00f1e000
00f1e000
00f1e000
00f1e000
00000000
00000000
007f0000
007f8000
00ff8000
00ff8000
00ffc000
01ffc000
01ffe000
01efe000
03cfe000
03cff000
07c7f000
0787f000
0787f800
0f83f800
0f03fc00
0ffffc00
1ffffc00
1ffffe00
1ffffe00
3c00fe00
3c007f00
7c007f00
78003f80
78003f80
f0003f80
ENDCHAR
STARTCHAR Lacute
ENCODING 197
SWIDTH 620 0
DWIDTH 21 0
BBX 18 31 3 0
BITMAP
07e000
078000
0f0000
1e0000
3c0000
000000
fe0000
fe0000
fe0000
fe0000
fe0000
fe0000
fe0000
fe0000
fe0000
fe0000
fe0000
fe0000
fe0000
fe0000
fe0000
fe0000
fe0000
fe0000
fe0000
fe0000
fe0000
ffffc0
ffffc0
ffffc0
ffffc0
ENDCHAR
STARTCHAR Cacute
ENCODING 198
SWIDTH 726 0
DWIDTH 25 0
BBX 23 31 1 0
BITMAP
0001f8
0001e0
0003c0
000780
000f00
000000
003ff8
01fffe
07fffe
1ffffe
1ff00e
3fc000
7f8000
7f0000
7f0000
fe0000
fe0000
fe0000
fe0000
fe0000
fe0000
ff0000
7f0000
7f8000
7fc002
3ff00e
1ffffe
1ffffe
07fffe
03fffe
007fe0
ENDCHAR
STARTCHAR Ccedilla
ENCODING 199
SWIDTH 726 0
DWIDTH 25 0
BBX 23 32 1 -7
BITMAP
003ff8
01fffe
07fffe
1ffffe
1ff00e
3fc000
7f8000
7f0000
7f0000
fe0000
fe0000
fe0000
fe0000
fe0000
fe0000
ff0000
7f0000
7f8000
7fc002
3ff00e
1ffffe
1ffffe
07fffe
03fffe
007fe0
003800
003000
007800
001e00
001e00
00fe00
00fc00
ENDCHAR
STARTCHAR Ccaron
ENCODING 200
SWIDTH 726 0
DWIDTH 25 0
BBX 23 31 1 0
BITMAP
00f0f0
0079e0
003fc0
001f80
001f80
000000
003ff8
01fffe
07fffe
1ffffe
1ff00e
3fc000
7f8000
7f0000
7f0000
fe0000
fe0000
fe0000
fe0000
fe0000
fe0000
ff0000
7f0000
7f8000
7fc002
3ff00e
1ffffe
1ffffe
07fffe
03fffe
007fe0
ENDCHAR
STARTCHAR Eacute
ENCODING 201
SWIDTH 645 0
DWIDTH 22 0
BBX 18 32 3 0
BITMAP
00fc00
00f000
01e000
03c000
078000
000000
000000
ffff80
ffff80
ffff80
ffff80
fe0000
fe0000
fe0000
fe0000
fe0000
fe0000
fffe00
fffe00
fffe00
fffe00
fe0000
fe0000
fe0000
fe0000
fe0000
fe0000
fe0000
ffffc0
ffffc0
ffffc0
ffffc0
ENDCHAR
STARTCHAR Eogonek
ENCODING 202
SWIDTH 645 0
DWIDTH 22 0
BBX 18 30 3 -5
BITMAP
ffff80
ffff80
ffff80
ffff80
fe0000
fe0000
fe0000
fe0000
fe0000
fe0000
fffe00
fffe00
fffe00
fffe00
fe0000
fe0000
fe0000
fe0000
fe0000
fe0000
fe0000
ffffc0
ffffc0
ffffc0
ffffc0
01c000
038000
038000
03f000
01f000
ENDCHAR
STARTCHAR Ediaeresis
ENCODING 203
SWIDTH 645 0
DWIDTH 22 0
BBX 18 31 3 0
BITMAP
1e3c00
1e3c00
1e3c00
1e3c00
000000
000000
ffff80
ffff80
ffff80
ffff80
fe0000
fe0000
fe0000
fe0000
fe0000
fe0000
fffe00
fffe00
fffe00
fffe00
fe0000
fe0000
fe0000
fe0000
fe0000
fe0000
fe0000
ffffc0
ffffc0
ffffc0
ffffc0
ENDCHAR
STARTCHAR Ecaron
ENCODING 204
SWIDTH 645 0
DWIDTH 22 0
BBX 18 31 3 0
BITMAP
1e1e00
0f3c00
07f800
03f000
03f000
000000
ffff80
ffff80
ffff80
ffff80
fe0000
fe0000
fe0000
fe0000
fe0000
fe0000
fffe00
fffe00
fffe00
fffe00
fe0000
fe0000
fe0000
fe0000
fe0000
fe0000
fe0000
ffffc0
ffffc0
ffffc0
ffffc0
ENDCHAR
STARTCHAR Iacute
ENCODING 205
SWIDTH 361 0
DWIDTH 12 0
BBX 10 32 3 0
BITMAP
0fc0
0f00
1e00
3c00
7800
0000
0000
fe00
fe00
fe00
fe00
fe00
fe00
fe00
fe00
fe00
fe00
fe00
fe00
fe00
fe00
fe00
fe00
fe00
fe00
fe00
fe00
fe00
fe00
fe00
fe00
fe00
ENDCHAR
STARTCHAR Icircumflex
ENCODING 206
SWIDTH 361 0
DWIDTH 12 0
BBX 12 32 5 0
BITMAP
1f80
1f80
3fc0
79e0
f0f0
0000
0000
3f80
3f80
3f80
3f80
3f80
3f80
3f80
3f80
3f80
3f80
3f80
3f80
3f80
3f80
3f80
3f80
3f80
3f80
3f80
3f80
3f80
3f80
3f80
3f80
3f80
ENDCHAR
STARTCHAR Dcaron
ENCODING 207
SWIDTH 819 0
DWIDTH 28 0
BBX 24 31 3 0
BITMAP
0f0f00
079e00
03fc00
01f800
01f800
000000
ffff00
ffffe0
fffff0
fffff8
fe07fc
fe01fe
fe01fe
fe00fe
fe007f
fe007f
fe007f
fe007f
fe007f
fe007f
fe007f
fe007f
fe00fe
fe00fe
fe01fe
fe07fc
fffffc
fffff8
fffff0
ffffc0
ffff00
ENDCHAR
STARTCHAR Dstroke
ENCODING 208
SWIDTH 819 0
DWIDTH 28 0
BBX 27 25 0 0
BITMAP
1fffe000
1ffffc00
1ffffe00
1fffff00
1fc0ff80
1fc03fc0
1fc03fc0
1fc01fc0
1fc00fe0
1fc00fe0
fffe0fe0
fffe0fe0
fffe0fe0
fffe0fe0
1fc00fe0
1fc00fe0
1fc01fc0
1fc01fc0
1fc03fc0
1fc0ff80
1fffff80
1fffff00
1ffffe00
1ffff800
1fffe000
ENDCHAR
STARTCHAR Nacute
ENCODING 209
SWIDTH 783 0
DWIDTH 27 0
BBX 21 31 3 0
BITMAP
000fc0
000f00
001e00
003c00
007800
000000
fc00f8
fe00f8
ff00f8
ff00f8
ff80f8
ffc0f8
ffe0f8
ffe0f8
fff0f8
fff8f8
fff8f8
fbfcf8
fbfef8
f9fef8
f8fff8
f8fff8
f87ff8
f83ff8
f83ff8
f81ff8
f80ff8
f807f8
f807f8
f803f8
f801f8
ENDCHAR
STARTCHAR Ncaron
ENCODING 210
SWIDTH 783 0
DWIDTH 27 0
BBX 21 31 3 0
BITMAP
078780
03cf00
01fe00
00fc00
00fc00
000000
fc00f8
fe00f8
ff00f8
ff00f8
ff80f8
ffc0f8
ffe0f8
ffe0f8
fff0f8
fff8f8
fff8f8
fbfcf8
fbfef8
f9fef8
f8fff8
f8fff8
f87ff8
f83ff8
f83ff8
f81ff8
f80ff8
f807f8
f807f8
f803f8
f801f8
ENDCHAR
STARTCHAR Oacute
ENCODING 211
SWIDTH 855 0
DWIDTH 29 0
BBX 27 32 1 0
BITMAP
0003f000
0003c000
00078000
000f0000
001e0000
00000000
00000000
007fc000
03fff800
07fffc00
0ffffe00
1fe0ff00
3fc07f80
7f803fc0
7f001fc0
7f001fc0
fe000fe0
fe000fe0
fe000fe0
fe000fe0
fe000fe0
fe000fe0
fe000fe0
7f001fc0
7f001fc0
7f803fc0
3fc07f80
1fe0ff00
0ffffe00
07fffc00
03fff800
007fc000
ENDCHAR
STARTCHAR Ocircumflex
ENCODING 212
SWIDTH 855 0
DWIDTH 29 0
BBX 27 32 1 0
BITMAP
001f8000
001f8000
003fc000
0079e000
00f0f000
00000000
00000000
007fc000
03fff800
07fffc00
0ffffe00
1fe0ff00
3fc07f80
7f803fc0
7f001fc0
7f001fc0
fe000fe0
fe000fe0
fe000fe0
fe000fe0
fe000fe0
fe000fe0
fe000fe0
7f001fc0
7f001fc0
7f803fc0
3fc07f80
1fe0ff00
0ffffe00
07fffc00
03fff800
007fc000
ENDCHAR
STARTCHAR Odoubleacute
ENCODING 213
SWIDTH 855 0
DWIDTH 29 0
BBX 27 31 1 0
BITMAP
000f3c00
001e7800
001cf000
0038e000
0071c000
00000000
007fc000
03fff800
07fffc00
0ffffe00
1fe0ff00
3fc07f80
7f803fc0
7f001fc0
7f001fc0
fe000fe0
fe000fe0
fe000fe0
fe000fe0
fe000fe0
fe000fe0
fe000fe0
7f001fc0
7f001fc0
7f803fc0
3fc07f80
1fe0ff00
0ffffe00
07fffc00
03fff800
007fc000
ENDCHAR
STARTCHAR Odiaeresis
ENCODING 214
SWIDTH 855 0
DWIDTH 29 0
BBX 27 31 1 0
BITMAP
0078f000
0078f000
0078f000
0078f000
00000000
00000000
007fc000
03fff800
07fffc00
0ffffe00
1fe0ff00
3fc07f80
7f803fc0
7f001fc0
7f001fc0
fe000fe0
fe000fe0
fe000fe0
fe000fe0
fe000fe0
fe000fe0
fe000fe0
7f001fc0
7f001fc0
7f803fc0
3fc07f80
1fe0ff00
0ffffe00
07fffc00
03fff800
007fc000
ENDCHAR
STARTCHAR multiply
ENCODING 215
SWIDTH 687 0
DWIDTH 23 0
BBX 20 21 2 0
BITMAP
200040
7000e0
f801f0
7c03e0
3e07c0
3f0fc0
1f9f80
0fff00
07fe00
03fc00
01f800
03fc00
07fe00
0fff00
1f9f80
3f0fc0
3e07c0
7c03e0
f801f0
7000e0
200040
ENDCHAR
STARTCHAR Rcaron
ENCODING 216
SWIDTH 734 0
DWIDTH 25 0
BBX 23 31 3 0
BITMAP
1e1e00
0f3c00
07f800
03f000
03f000
000000
fffe00
ffff80
ffffc0
ffffc0
fe1fe0
fe0fe0
fe0fe0
fe0fe0
fe0fe0
fe1fc0
fe3fc0
ffff80
ffff00
fffe00
ffff00
fe7f80
fe3f80
fe3fc0
fe1fc0
fe1fe0
fe0ff0
fe0ff0
fe07f8
fe07fc
fe03fe
ENDCHAR
STARTCHAR Uring
ENCODING 217
SWIDTH 783 0
DWIDTH 27 0
BBX 21 32 3 0
BITMAP
007000
00f800
00d800
00d800
00f800
007000
000000
fe03f8
fe03f8
fe03f8
fe03f8
fe03f8
fe03f8
fe03f8
fe03f8
fe03f8
fe03f8
fe03f8
fe03f8
fe03f8
fe03f8
fe03f8
fe03f8
fe03f8
fe03f8
fe03f8
7f07f0
7f8ff0
3fffe0
1fffe0
0fff80
01fe00
ENDCHAR
STARTCHAR Uacute
ENCODING 218
SWIDTH 783 0
DWIDTH 27 0
BBX 21 32 3 0
BITMAP
001f80
001e00
003c00
007800
00f000
000000
000000
fe03f8
fe03f8
fe03f8
fe03f8
fe03f8
fe03f8
fe03f8
fe03f8
fe03f8
fe03f8
fe03f8
fe03f8
fe03f8
fe03f8
fe03f8
fe03f8
fe03f8
fe03f8
fe03f8
7f07f0
7f8ff0
3fffe0
1fffe0
0fff80
01fe00
ENDCHAR
STARTCHAR Udoubleacute
ENCODING 219
SWIDTH 783 0
DWIDTH 27 0
BBX 21 31 3 0
BITMAP
0079e0
00f3c0
00e780
01c700
038e00
000000
fe03f8
fe03f8
fe03f8
fe03f8
fe03f8
fe03f8
fe03f8
fe03f8
fe03f8
fe03f8
fe03f8
fe03f8
fe03f8
fe03f8
fe03f8
fe03f8
fe03f8
fe03f8
fe03f8
7f07f0
7f8ff0
3fffe0
1fffe0
0fff80
01fe00
ENDCHAR
STARTCHAR Udiaeresis
ENCODING 220
SWIDTH 783 0
DWIDTH 27 0
BBX 21 31 3 0
BITMAP
03c780
03c780
03c780
03c780
000000
000000
fe03f8
fe03f8
fe03f8
fe03f8
fe03f8
fe03f8
fe03f8
fe03f8
fe03f8
fe03f8
fe03f8
fe03f8
fe03f8
fe03f8
fe03f8
fe03f8
fe03f8
fe03f8
fe03f8
7f07f0
7f8ff0
3fffe0
1fffe0
0fff80
01fe00
ENDCHAR
STARTCHAR Yacute
ENCODING 221
SWIDTH 738 0
DWIDTH 25 0
BBX 23 32 1 0
BITMAP
000fc0
000f00
001e00
003c00
007800
000000
000000
ff003e
ff003c
7f807c
3fc0f8
3fc0f0
1fe1f0
1fe1e0
0ff3e0
0ff7c0
07ffc0
07ff80
03ff80
03ff00
01fe00
00fe00
00fe00
00fe00
00fe00
00fe00
00fe00
00fe00
00fe00
00fe00
00fe00
00fe00
ENDCHAR
STARTCHAR Tcedilla
ENCODING 222
SWIDTH 735 0
DWIDTH 25 0
BBX 25 32 0 -7
BITMAP
ffffff80
ffffff80
ffffff80
ffffff80
007f0000
007f0000
007f0000
007f0000
007f0000
007f0000
007f0000
007f0000
007f0000
007f0000
007f0000
007f0000
007f0000
007f0000
007f0000
007f0000
007f0000
007f0000
007f0000
007f0000
007f0000
001c0000
00180000
003c0000
000f0000
000f0000
007f0000
007e0000
ENDCHAR
STARTCHAR ssharp
ENCODING 223
SWIDTH 724 0
DWIDTH 25 0
BBX 21 26 3 0
BITMAP
07f800
1ffe00
3fff00
7fff00
7f1f00
fe0f00
fe0f00
fe1e00
fe1e00
fe3c00
fe7c00
fe7e00
fe7f00
fe7fc0
fe7fe0
fe7ff0
fe3ff0
fe1ff8
fe07f8
fe03f8
fe01f8
fe01f8
fe3ff8
fe3ff0
fe3fe0
fe3fc0
ENDCHAR
STARTCHAR racute
ENCODING 224
SWIDTH 500 0
DWIDTH 17 0
BBX 14 24 3 0
BITMAP
00fc
00f0
01e0
03c0
0780
0000
fe3c
fe7c
fefc
fffc
fffc
fffc
ff80
ff00
fe00
fe00
fe00
fe00
fe00
fe00
fe00
fe00
fe00
fe00
ENDCHAR
STARTCHAR aacute
ENCODING 225
SWIDTH 623 0
DWIDTH 21 0
BBX 19 25 1 0
BITMAP
003f00
003c00
007800
00f000
01e000
000000
000000
0ff800
3ffe00
3fff00
3fff80
307f80
203f80
003f80
0fff80
3fff80
7fff80
ffff80
ff3f80
fe3f80
fe7f80
ffffe0
7fffe0
3fdfe0
1f8fe0
ENDCHAR
STARTCHAR acircumflex
ENCODING 226
SWIDTH 623 0
DWIDTH 21 0
BBX 19 25 1 0
BITMAP
01f800
01f800
03fc00
079e00
0f0f00
000000
000000
0ff800
3ffe00
3fff00
3fff80
307f80
203f80
003f80
0fff80
3fff80
7fff80
ffff80
ff3f80
fe3f80
fe7f80
ffffe0
7fffe0
3fdfe0
1f8fe0
ENDCHAR
STARTCHAR abreve
ENCODING 227
SWIDTH 623 0
DWIDTH 21 0
BBX 19 24 1 0
BITMAP
1e1e00
1ffc00
0ffc00
07f800
03e000
000000
0ff800
3ffe00
3fff00
3fff80
307f80
203f80
003f80
0fff80
3fff80
7fff80
ffff80
ff3f80
fe3f80
fe7f80
ffffe0
7fffe0
3fdfe0
1f8fe0
ENDCHAR
STARTCHAR adiaeresis
ENCODING 228
SWIDTH 623 0
DWIDTH 21 0
BBX 19 24 1 0
BITMAP
078f00
078f00
078f00
078f00
000000
000000
0ff800
3ffe00
3fff00
3fff80
307f80
203f80
003f80
0fff80
3fff80
7fff80
ffff80
ff3f80
fe3f80
fe7f80
ffffe0
7fffe0
3fdfe0
1f8fe0
ENDCHAR
STARTCHAR lacute
ENCODING 229
SWIDTH 361 0
DWIDTH 12 0
BBX 11 32 3 0
BITMAP
07e0
0780
0f00
1e00
3c00
0000
fe00
fe00
fe00
fe00
fe00
fe00
fe00
fe00
fe00
fe00
fe00
fe00
fe00
fe00
fe00
fe00
fe00
fe00
fe00
fe00
fe00
fe00
fe00
fe00
fe00
fe00
ENDCHAR
STARTCHAR cacute
ENCODING 230
SWIDTH 545 0
DWIDTH 19 0
BBX 17 24 1 0
BITMAP
001f80
001e00
003c00
007800
00f000
000000
03fe00
0fff00
1fff00
3fff00
7f8300
7f0000
ff0000
fe0000
fe0000
fe0000
fe0000
fe0000
7f0000
7f8100
3fff00
3fff00
0fff00
03ff00
ENDCHAR
STARTCHAR ccedilla
ENCODING 231
SWIDTH 545 0
DWIDTH 19 0
BBX 16 25 1 -7
BITMAP
03fe
0fff
1fff
3fff
7f83
7f00
ff00
fe00
fe00
fe00
fe00
fe00
7f00
7f81
3fff
3fff
0fff
03ff
01c0
0180
03c0
00f0
00f0
07f0
07e0
ENDCHAR
STARTCHAR ccaron
ENCODING 232
SWIDTH 545 0
DWIDTH 19 0
BBX 16 24 1 0
BITMAP
0f0f
079e
03fc
01f8
01f8
0000
03fe
0fff
1fff
3fff
7f83
7f00
ff00
fe00
fe00
fe00
fe00
fe00
7f00
7f81
3fff
3fff
0fff
03ff
ENDCHAR
STARTCHAR eacute
ENCODING 233
SWIDTH 614 0
DWIDTH 21 0
BBX 18 25 1 0
BITMAP
007e00
007800
00f000
01e000
03c000
000000
000000
03f800
0ffe00
3fff00
3fff80
7e3f80
7e1fc0
ffffc0
ffffc0
ffffc0
ffffc0
fe0000
fe0000
7f80c0
7fffc0
3fffc0
1fffc0
0fffc0
01fe00
ENDCHAR
STARTCHAR eogonek
ENCODING 234
SWIDTH 614 0
DWIDTH 21 0
BBX 18 23 1 -5
BITMAP
03f800
0ffe00
3fff00
3fff80
7e3f80
7e1fc0
ffffc0
ffffc0
ffffc0
ffffc0
fe0000
fe0000
7f80c0
7fffc0
3fffc0
1fffc0
0fffc0
01fe00
01c000
038000
038000
03f000
01f000
ENDCHAR
STARTCHAR ediaeresis
ENCODING 235
SWIDTH 614 0
DWIDTH 21 0
BBX 18 24 1 0
BITMAP
0f1e00
0f1e00
0f1e00
0f1e00
000000
000000
03f800
0ffe00
3fff00
3fff80
7e3f80
7e1fc0
ffffc0
ffffc0
ffffc0
ffffc0
fe0000
fe0000
7f80c0
7fffc0
3fffc0
1fffc0
0fffc0
01fe00
ENDCHAR
STARTCHAR ecaron
ENCODING 236
SWIDTH 614 0
DWIDTH 21 0
BBX 18 24 1 0
BITMAP
1e1e00
0f3c00
07f800
03f000
03f000
000000
03f800
0ffe00
3fff00
3fff80
7e3f80
7e1fc0
ffffc0
ffffc0
ffffc0
ffffc0
fe0000
fe0000
7f80c0
7fffc0
3fffc0
1fffc0
0fffc0
01fe00
ENDCHAR
STARTCHAR iacute
ENCODING 237
SWIDTH 361 0
DWIDTH 12 0
BBX 9 25 3 0
BITMAP
1f80
1e00
3c00
7800
f000
0000
0000
fe00
fe00
fe00
fe00
fe00
fe00
fe00
fe00
fe00
fe00
fe00
fe00
fe00
fe00
fe00
fe00
fe00
fe00
ENDCHAR
STARTCHAR icircumflex
ENCODING 238
SWIDTH 361 0
DWIDTH 12 0
BBX 12 25 5 0
BITMAP
1f80
1f80
3fc0
79e0
f0f0
0000
0000
3f80
3f80
3f80
3f80
3f80
3f80
3f80
3f80
3f80
3f80
3f80
3f80
3f80
3f80
3f80
3f80
3f80
3f80
ENDCHAR
STARTCHAR dcaron
ENCODING 239
SWIDTH 960 0
DWIDTH 32 0
BBX 28 30 1 0
BITMAP
000007f0
000007f0
000007f0
000007f0
0007f7f0
0007f7f0
0007f7f0
0007f0f0
0007f1e0
0007f1e0
0007f7c0
0007f700
07c7f000
1ff7f000
3ffff000
7ffff000
7f8ff000
ff07f000
fe07f000
fe07f000
fe07f000
fe07f000
fe07f000
ff07f000
ff0ff000
7ffff000
7ffff000
3ff7f000
1fe7f000
0fc7f000
ENDCHAR
STARTCHAR dstroke
ENCODING 240
SWIDTH 840 0
DWIDTH 28 0
BBX 24 26 1 0
BITMAP
0007f0
0007f0
0007f0
007fff
007fff
0007f0
0007f0
0007f0
07c7f0
1ff7f0
3ffff0
7ffff0
7f8ff0
ff07f0
fe07f0
fe07f0
fe07f0
fe07f0
fe07f0
ff07f0
ff0ff0
7ffff0
7ffff0
3ff7f0
1fe7f0
0fc7f0
ENDCHAR
STARTCHAR nacute
ENCODING 241
SWIDTH 693 0
DWIDTH 24 0
BBX 18 24 3 0
BITMAP
003f00
003c00
007800
00f000
01e000
000000
fe3e00
feff80
feff80
ffffc0
ffffc0
ffffc0
ff1fc0
ff1fc0
fe1fc0
fe1fc0
fe1fc0
fe1fc0
fe1fc0
fe1fc0
fe1fc0
fe1fc0
fe1fc0
fe1fc0
ENDCHAR
STARTCHAR ncaron
ENCODING 242
SWIDTH 693 0
DWIDTH 24 0
BBX 18 24 3 0
BITMAP
1e1e00
0f3c00
07f800
03f000
03f000
000000
fe3e00
feff80
feff80
ffffc0
ffffc0
ffffc0
ff1fc0
ff1fc0
fe1fc0
fe1fc0
fe1fc0
fe1fc0
fe1fc0
fe1fc0
fe1fc0
fe1fc0
fe1fc0
fe1fc0
ENDCHAR
STARTCHAR oacute
ENCODING 243
SWIDTH 675 0
DWIDTH 23 0
BBX 20 25 1 0
BITMAP
003f00
003c00
007800
00f000
01e000
000000
000000
03fc00
0fff00
1fff80
3fffc0
7f9fe0
7f0fe0
fe07f0
fe07f0
fe07f0
fe07f0
fe07f0
fe07f0
7f0fe0
7f9fe0
3fffc0
1fff80
0fff00
03fc00
ENDCHAR
STARTCHAR ocircumflex
ENCODING 244
SWIDTH 675 0
DWIDTH 23 0
BBX 20 25 1 0
BITMAP
01f800
01f800
03fc00
079e00
0f0f00
000000
000000
03fc00
0fff00
1fff80
3fffc0
7f9fe0
7f0fe0
fe07f0
fe07f0
fe07f0
fe07f0
fe07f0
fe07f0
7f0fe0
7f9fe0
3fffc0
1fff80
0fff00
03fc00
ENDCHAR
STARTCHAR odoubleacute
ENCODING 245
SWIDTH 675 0
DWIDTH 23 0
BBX 20 24 1 0
BITMAP
00f3c0
01e780
01cf00
038e00
071c00
000000
03fc00
0fff00
1fff80
3fffc0
7f9fe0
7f0fe0
fe07f0
fe07f0
fe07f0
fe07f0
fe07f0
fe07f0
7f0fe0
7f9fe0
3fffc0
1fff80
0fff00
03fc00
ENDCHAR
STARTCHAR odiaeresis
ENCODING 246
SWIDTH 675 0
DWIDTH 23 0
BBX 20 24 1 0
BITMAP
078f00
078f00
078f00
078f00
000000
000000
03fc00
0fff00
1fff80
3fffc0
7f9fe0
7f0fe0
fe07f0
fe07f0
fe07f0
fe07f0
fe07f0
fe07f0
7f0fe0
7f9fe0
3fffc0
1fff80
0fff00
03fc00
ENDCHAR
STARTCHAR division
ENCODING 247
SWIDTH 687 0
DWIDTH 23 0
BBX 20 21 2 0
BITMAP
01f000
01f000
01f000
01f000
01f000
000000
000000
000000
fffff0
fffff0
fffff0
fffff0
000000
000000
000000
000000
01f000
01f000
01f000
01f000
01f000
ENDCHAR
STARTCHAR rcaron
ENCODING 248
SWIDTH 500 0
DWIDTH 17 0
BBX 14 24 3 0
BITMAP
7878
3cf0
1fe0
0fc0
0fc0
0000
fe3c
fe7c
fefc
fffc
fffc
fffc
ff80
ff00
fe00
fe00
fe00
fe00
fe00
fe00
fe00
fe00
fe00
fe00
ENDCHAR
STARTCHAR uring
ENCODING 249
SWIDTH 693 0
DWIDTH 24 0
BBX 18 25 3 0
BITMAP
01c000
03e000
036000
036000
03e000
01c000
000000
fe1fc0
fe1fc0
fe1fc0
fe1fc0
fe1fc0
fe1fc0
fe1fc0
fe1fc0
fe1fc0
fe1fc0
fe1fc0
fe3fc0
fe3fc0
ffffc0
ffffc0
7fdfc0
7fdfc0
1f1fc0
ENDCHAR
STARTCHAR uacute
ENCODING 250
SWIDTH 693 0
DWIDTH 24 0
BBX 18 25 3 0
BITMAP
007e00
007800
00f000
01e000
03c000
000000
000000
fe1fc0
fe1fc0
fe1fc0
fe1fc0
fe1fc0
fe1fc0
fe1fc0
fe1fc0
fe1fc0
fe1fc0
fe1fc0
fe3fc0
fe3fc0
ffffc0
ffffc0
7fdfc0
7fdfc0
1f1fc0
ENDCHAR
STARTCHAR udoubleacute
ENCODING 251
SWIDTH 693 0
DWIDTH 24 0
BBX 18 24 3 0
BITMAP
01e780
03cf00
039e00
071c00
0e3800
000000
fe1fc0
fe1fc0
fe1fc0
fe1fc0
fe1fc0
fe1fc0
fe1fc0
fe1fc0
fe1fc0
fe1fc0
fe1fc0
fe3fc0
fe3fc0
ffffc0
ffffc0
7fdfc0
7fdfc0
1f1fc0
ENDCHAR
STARTCHAR udiaeresis
ENCODING 252
SWIDTH 693 0
DWIDTH 24 0
BBX 18 24 3 0
BITMAP
0f1e00
0f1e00
0f1e00
0f1e00
000000
000000
fe1fc0
fe1fc0
fe1fc0
fe1fc0
fe1fc0
fe1fc0
fe1fc0
fe1fc0
fe1fc0
fe1fc0
fe1fc0
fe3fc0
fe3fc0
ffffc0
ffffc0
7fdfc0
7fdfc0
1f1fc0
ENDCHAR
STARTCHAR yacute
ENCODING 253
SWIDTH 645 0
DWIDTH 22 0
BBX 21 32 1 -7
BITMAP
003f00
003c00
007800
00f000
01e000
000000
000000
ff00f8
ff00f0
7f01f0
7f81e0
3f83e0
3f83c0
3fc7c0
1fc780
1fef80
0fef00
0fff00
0ffe00
07fe00
07fc00
07fc00
03f800
03f800
01f800
01f000
03f000
03e000
07e000
0fc000
1fc000
3f8000
ENDCHAR
STARTCHAR tcedilla
ENCODING 254
SWIDTH 436 0
DWIDTH 15 0
BBX 13 30 1 -7
BITMAP
0380
3f80
3f80
3f80
3f80
fff8
fff8
fff8
fff8
3f80
3f80
3f80
3f80
3f80
3f80
3f80
3f80
3f80
3fc0
3ff8
1ff8
1ff8
07f8
0700
0600
0f00
03c0
03c0
1fc0
1f80
ENDCHAR
STARTCHAR abovedot
ENCODING 255
SWIDTH 675 0
DWIDTH 23 0
BBX 5 5 9 21
BITMAP
f8
f8
f8
f8
f8
ENDCHAR
ENDFONT
